<mxfile host="app.diagrams.net" agent="Mozilla/5.0 (Windows NT 10.0; Win64; x64) AppleWebKit/537.36 (KHTML, like Gecko) Chrome/131.0.0.0 Safari/537.36" version="24.8.8">
  <diagram name="Page-1" id="c37626ed-c26b-45fb-9056-f9ebc6bb27b6">
    <mxGraphModel dx="2534" dy="746" grid="1" gridSize="10" guides="1" tooltips="1" connect="1" arrows="1" fold="1" page="1" pageScale="1" pageWidth="1100" pageHeight="850" background="none" math="0" shadow="0">
      <root>
        <mxCell id="0" />
        <mxCell id="1" parent="0" />
        <mxCell id="i18mFt824C8dtEHNcT4z-2" value="" style="shape=mxgraph.cisco.switches.layer_3_switch;sketch=0;html=1;pointerEvents=1;dashed=0;fillColor=#036897;strokeColor=#ffffff;strokeWidth=2;verticalLabelPosition=bottom;verticalAlign=top;align=center;outlineConnect=0;" parent="1" vertex="1">
          <mxGeometry x="357" y="721" width="64" height="64" as="geometry" />
        </mxCell>
        <mxCell id="i18mFt824C8dtEHNcT4z-3" value="" style="shape=mxgraph.cisco.switches.layer_3_switch;sketch=0;html=1;pointerEvents=1;dashed=0;fillColor=#036897;strokeColor=#ffffff;strokeWidth=2;verticalLabelPosition=bottom;verticalAlign=top;align=center;outlineConnect=0;" parent="1" vertex="1">
          <mxGeometry x="1005" y="720" width="64" height="64" as="geometry" />
        </mxCell>
        <mxCell id="i18mFt824C8dtEHNcT4z-4" value="" style="shape=mxgraph.cisco.switches.layer_3_switch;sketch=0;html=1;pointerEvents=1;dashed=0;fillColor=#036897;strokeColor=#ffffff;strokeWidth=2;verticalLabelPosition=bottom;verticalAlign=top;align=center;outlineConnect=0;" parent="1" vertex="1">
          <mxGeometry x="-215" y="544" width="64" height="64" as="geometry" />
        </mxCell>
        <mxCell id="i18mFt824C8dtEHNcT4z-5" value="" style="shape=mxgraph.cisco.switches.layer_3_switch;sketch=0;html=1;pointerEvents=1;dashed=0;fillColor=#036897;strokeColor=#ffffff;strokeWidth=2;verticalLabelPosition=bottom;verticalAlign=top;align=center;outlineConnect=0;" parent="1" vertex="1">
          <mxGeometry x="1596" y="544" width="64" height="64" as="geometry" />
        </mxCell>
        <mxCell id="i18mFt824C8dtEHNcT4z-9" value="" style="shape=mxgraph.cisco.switches.class_4_5_switch;sketch=0;html=1;pointerEvents=1;dashed=0;fillColor=#036897;strokeColor=#ffffff;strokeWidth=2;verticalLabelPosition=bottom;verticalAlign=top;align=center;outlineConnect=0;" parent="1" vertex="1">
          <mxGeometry x="-301" y="928.25" width="54" height="70" as="geometry" />
        </mxCell>
        <mxCell id="i18mFt824C8dtEHNcT4z-10" value="" style="shape=mxgraph.cisco.switches.class_4_5_switch;sketch=0;html=1;pointerEvents=1;dashed=0;fillColor=#036897;strokeColor=#ffffff;strokeWidth=2;verticalLabelPosition=bottom;verticalAlign=top;align=center;outlineConnect=0;" parent="1" vertex="1">
          <mxGeometry x="-121" y="928.25" width="54" height="70" as="geometry" />
        </mxCell>
        <mxCell id="i18mFt824C8dtEHNcT4z-11" value="" style="shape=mxgraph.cisco.switches.class_4_5_switch;sketch=0;html=1;pointerEvents=1;dashed=0;fillColor=#036897;strokeColor=#ffffff;strokeWidth=2;verticalLabelPosition=bottom;verticalAlign=top;align=center;outlineConnect=0;" parent="1" vertex="1">
          <mxGeometry x="-323" y="778.25" width="54" height="70" as="geometry" />
        </mxCell>
        <mxCell id="i18mFt824C8dtEHNcT4z-12" value="" style="shape=mxgraph.cisco.switches.class_4_5_switch;sketch=0;html=1;pointerEvents=1;dashed=0;fillColor=#036897;strokeColor=#ffffff;strokeWidth=2;verticalLabelPosition=bottom;verticalAlign=top;align=center;outlineConnect=0;" parent="1" vertex="1">
          <mxGeometry x="-103" y="778.25" width="54" height="70" as="geometry" />
        </mxCell>
        <mxCell id="i18mFt824C8dtEHNcT4z-14" value="" style="endArrow=none;html=1;rounded=0;entryX=0.5;entryY=1;entryDx=0;entryDy=0;entryPerimeter=0;exitX=0.5;exitY=0;exitDx=0;exitDy=0;exitPerimeter=0;" parent="1" source="i18mFt824C8dtEHNcT4z-11" target="i18mFt824C8dtEHNcT4z-4" edge="1">
          <mxGeometry width="50" height="50" relative="1" as="geometry">
            <mxPoint x="1130" y="1260" as="sourcePoint" />
            <mxPoint x="1180" y="1210" as="targetPoint" />
          </mxGeometry>
        </mxCell>
        <mxCell id="i18mFt824C8dtEHNcT4z-15" value="" style="endArrow=none;html=1;rounded=0;entryX=0.5;entryY=1;entryDx=0;entryDy=0;entryPerimeter=0;exitX=0.5;exitY=0;exitDx=0;exitDy=0;exitPerimeter=0;" parent="1" source="i18mFt824C8dtEHNcT4z-12" target="i18mFt824C8dtEHNcT4z-4" edge="1">
          <mxGeometry width="50" height="50" relative="1" as="geometry">
            <mxPoint x="374" y="1210" as="sourcePoint" />
            <mxPoint x="612" y="834" as="targetPoint" />
          </mxGeometry>
        </mxCell>
        <mxCell id="i18mFt824C8dtEHNcT4z-16" value="" style="endArrow=none;html=1;rounded=0;entryX=0.5;entryY=1;entryDx=0;entryDy=0;entryPerimeter=0;exitX=0.5;exitY=0;exitDx=0;exitDy=0;exitPerimeter=0;" parent="1" source="i18mFt824C8dtEHNcT4z-9" target="i18mFt824C8dtEHNcT4z-11" edge="1">
          <mxGeometry width="50" height="50" relative="1" as="geometry">
            <mxPoint x="-24" y="898.25" as="sourcePoint" />
            <mxPoint x="-171" y="712.25" as="targetPoint" />
          </mxGeometry>
        </mxCell>
        <mxCell id="i18mFt824C8dtEHNcT4z-17" value="" style="endArrow=none;html=1;rounded=0;entryX=1;entryY=0.5;entryDx=0;entryDy=0;entryPerimeter=0;exitX=0;exitY=0.5;exitDx=0;exitDy=0;exitPerimeter=0;" parent="1" source="i18mFt824C8dtEHNcT4z-10" target="i18mFt824C8dtEHNcT4z-9" edge="1">
          <mxGeometry width="50" height="50" relative="1" as="geometry">
            <mxPoint x="-22" y="888.25" as="sourcePoint" />
            <mxPoint x="-169" y="702.25" as="targetPoint" />
          </mxGeometry>
        </mxCell>
        <mxCell id="i18mFt824C8dtEHNcT4z-18" value="" style="endArrow=none;html=1;rounded=0;entryX=0.5;entryY=0;entryDx=0;entryDy=0;entryPerimeter=0;exitX=0.5;exitY=1;exitDx=0;exitDy=0;exitPerimeter=0;" parent="1" source="i18mFt824C8dtEHNcT4z-12" target="i18mFt824C8dtEHNcT4z-10" edge="1">
          <mxGeometry width="50" height="50" relative="1" as="geometry">
            <mxPoint x="-4" y="918.25" as="sourcePoint" />
            <mxPoint x="-151" y="732.25" as="targetPoint" />
          </mxGeometry>
        </mxCell>
        <mxCell id="i18mFt824C8dtEHNcT4z-19" value="" style="endArrow=none;html=1;rounded=0;entryX=0.5;entryY=0;entryDx=0;entryDy=0;entryPerimeter=0;fillColor=#f8cecc;strokeColor=#b85450;strokeWidth=3;" parent="1" target="i18mFt824C8dtEHNcT4z-2" edge="1">
          <mxGeometry width="50" height="50" relative="1" as="geometry">
            <mxPoint x="-150" y="580" as="sourcePoint" />
            <mxPoint x="640" y="690" as="targetPoint" />
          </mxGeometry>
        </mxCell>
        <mxCell id="i18mFt824C8dtEHNcT4z-20" value="" style="endArrow=none;html=1;rounded=0;exitX=1;exitY=0.5;exitDx=0;exitDy=0;exitPerimeter=0;entryX=0.5;entryY=0;entryDx=0;entryDy=0;entryPerimeter=0;fillColor=#f8cecc;strokeColor=#b85450;strokeWidth=3;" parent="1" source="i18mFt824C8dtEHNcT4z-4" target="i18mFt824C8dtEHNcT4z-3" edge="1">
          <mxGeometry width="50" height="50" relative="1" as="geometry">
            <mxPoint x="600" y="750" as="sourcePoint" />
            <mxPoint x="650" y="700" as="targetPoint" />
          </mxGeometry>
        </mxCell>
        <mxCell id="i18mFt824C8dtEHNcT4z-21" value="" style="endArrow=none;html=1;rounded=0;exitX=0.5;exitY=0;exitDx=0;exitDy=0;exitPerimeter=0;strokeWidth=3;fillColor=#f8cecc;strokeColor=#b85450;entryX=0.5;entryY=0;entryDx=0;entryDy=0;entryPerimeter=0;" parent="1" source="i18mFt824C8dtEHNcT4z-2" target="i18mFt824C8dtEHNcT4z-3" edge="1">
          <mxGeometry width="50" height="50" relative="1" as="geometry">
            <mxPoint x="610" y="760" as="sourcePoint" />
            <mxPoint x="660" y="710" as="targetPoint" />
          </mxGeometry>
        </mxCell>
        <mxCell id="i18mFt824C8dtEHNcT4z-22" value="" style="endArrow=none;html=1;rounded=0;exitX=0.5;exitY=0;exitDx=0;exitDy=0;exitPerimeter=0;entryX=0;entryY=0.5;entryDx=0;entryDy=0;entryPerimeter=0;fillColor=#f8cecc;strokeColor=#b85450;strokeWidth=3;" parent="1" source="i18mFt824C8dtEHNcT4z-3" target="i18mFt824C8dtEHNcT4z-5" edge="1">
          <mxGeometry width="50" height="50" relative="1" as="geometry">
            <mxPoint x="620" y="770" as="sourcePoint" />
            <mxPoint x="670" y="720" as="targetPoint" />
          </mxGeometry>
        </mxCell>
        <mxCell id="i18mFt824C8dtEHNcT4z-23" value="" style="endArrow=none;html=1;rounded=0;exitX=1;exitY=0.5;exitDx=0;exitDy=0;exitPerimeter=0;entryX=0;entryY=0.5;entryDx=0;entryDy=0;entryPerimeter=0;fillColor=#f8cecc;strokeColor=#b85450;strokeWidth=3;" parent="1" source="i18mFt824C8dtEHNcT4z-4" target="i18mFt824C8dtEHNcT4z-5" edge="1">
          <mxGeometry width="50" height="50" relative="1" as="geometry">
            <mxPoint x="630" y="780" as="sourcePoint" />
            <mxPoint x="680" y="730" as="targetPoint" />
          </mxGeometry>
        </mxCell>
        <mxCell id="i18mFt824C8dtEHNcT4z-24" value="" style="endArrow=none;html=1;rounded=0;exitX=0.5;exitY=0;exitDx=0;exitDy=0;exitPerimeter=0;entryX=0;entryY=0.5;entryDx=0;entryDy=0;entryPerimeter=0;fillColor=#f8cecc;strokeColor=#b85450;strokeWidth=3;" parent="1" source="i18mFt824C8dtEHNcT4z-2" target="i18mFt824C8dtEHNcT4z-5" edge="1">
          <mxGeometry width="50" height="50" relative="1" as="geometry">
            <mxPoint x="640" y="790" as="sourcePoint" />
            <mxPoint x="690" y="740" as="targetPoint" />
          </mxGeometry>
        </mxCell>
        <mxCell id="i18mFt824C8dtEHNcT4z-25" value="" style="endArrow=none;html=1;rounded=0;exitX=0.5;exitY=0;exitDx=0;exitDy=0;exitPerimeter=0;entryX=0.5;entryY=1;entryDx=0;entryDy=0;entryPerimeter=0;" parent="1" source="i18mFt824C8dtEHNcT4z-2" target="i18mFt824C8dtEHNcT4z-27" edge="1">
          <mxGeometry width="50" height="50" relative="1" as="geometry">
            <mxPoint x="650" y="800" as="sourcePoint" />
            <mxPoint x="700" y="750" as="targetPoint" />
          </mxGeometry>
        </mxCell>
        <mxCell id="i18mFt824C8dtEHNcT4z-27" value="" style="sketch=0;points=[[0.5,0,0],[1,0.5,0],[0.5,1,0],[0,0.5,0],[0.145,0.145,0],[0.8555,0.145,0],[0.855,0.8555,0],[0.145,0.855,0]];verticalLabelPosition=bottom;html=1;verticalAlign=top;aspect=fixed;align=center;pointerEvents=1;shape=mxgraph.cisco19.rect;prIcon=router;fillColor=#FAFAFA;strokeColor=#005073;" parent="1" vertex="1">
          <mxGeometry x="530" y="210" width="90" height="90" as="geometry" />
        </mxCell>
        <mxCell id="i18mFt824C8dtEHNcT4z-28" value="" style="sketch=0;points=[[0.5,0,0],[1,0.5,0],[0.5,1,0],[0,0.5,0],[0.145,0.145,0],[0.8555,0.145,0],[0.855,0.8555,0],[0.145,0.855,0]];verticalLabelPosition=bottom;html=1;verticalAlign=top;aspect=fixed;align=center;pointerEvents=1;shape=mxgraph.cisco19.rect;prIcon=router;fillColor=#FAFAFA;strokeColor=#005073;" parent="1" vertex="1">
          <mxGeometry x="800" y="210" width="90" height="90" as="geometry" />
        </mxCell>
        <mxCell id="i18mFt824C8dtEHNcT4z-29" value="" style="endArrow=none;html=1;rounded=0;exitX=0.5;exitY=0;exitDx=0;exitDy=0;exitPerimeter=0;entryX=1;entryY=0.5;entryDx=0;entryDy=0;entryPerimeter=0;" parent="1" source="i18mFt824C8dtEHNcT4z-5" target="i18mFt824C8dtEHNcT4z-28" edge="1">
          <mxGeometry width="50" height="50" relative="1" as="geometry">
            <mxPoint x="560" y="480" as="sourcePoint" />
            <mxPoint x="835" y="270" as="targetPoint" />
          </mxGeometry>
        </mxCell>
        <mxCell id="i18mFt824C8dtEHNcT4z-30" value="" style="endArrow=none;html=1;rounded=0;exitX=0.5;exitY=0;exitDx=0;exitDy=0;exitPerimeter=0;entryX=0.5;entryY=1;entryDx=0;entryDy=0;entryPerimeter=0;" parent="1" source="i18mFt824C8dtEHNcT4z-3" target="i18mFt824C8dtEHNcT4z-28" edge="1">
          <mxGeometry width="50" height="50" relative="1" as="geometry">
            <mxPoint x="570" y="490" as="sourcePoint" />
            <mxPoint x="845" y="280" as="targetPoint" />
          </mxGeometry>
        </mxCell>
        <mxCell id="i18mFt824C8dtEHNcT4z-32" value="" style="endArrow=none;html=1;rounded=0;exitX=1;exitY=0.5;exitDx=0;exitDy=0;exitPerimeter=0;entryX=0;entryY=0.5;entryDx=0;entryDy=0;entryPerimeter=0;strokeWidth=3;fillColor=#f8cecc;strokeColor=#b85450;" parent="1" source="i18mFt824C8dtEHNcT4z-27" target="i18mFt824C8dtEHNcT4z-28" edge="1">
          <mxGeometry width="50" height="50" relative="1" as="geometry">
            <mxPoint x="590" y="510" as="sourcePoint" />
            <mxPoint x="865" y="300" as="targetPoint" />
          </mxGeometry>
        </mxCell>
        <mxCell id="i18mFt824C8dtEHNcT4z-34" value="" style="endArrow=none;html=1;rounded=0;exitX=0.5;exitY=0;exitDx=0;exitDy=0;exitPerimeter=0;entryX=0;entryY=0.5;entryDx=0;entryDy=0;entryPerimeter=0;" parent="1" source="i18mFt824C8dtEHNcT4z-4" target="i18mFt824C8dtEHNcT4z-27" edge="1">
          <mxGeometry width="50" height="50" relative="1" as="geometry">
            <mxPoint x="610" y="530" as="sourcePoint" />
            <mxPoint x="600" y="260" as="targetPoint" />
          </mxGeometry>
        </mxCell>
        <mxCell id="i18mFt824C8dtEHNcT4z-37" value="" style="shape=mxgraph.cisco.wireless.wireless_transport;sketch=0;html=1;pointerEvents=1;dashed=0;fillColor=#036897;strokeColor=#ffffff;strokeWidth=2;verticalLabelPosition=bottom;verticalAlign=top;align=center;outlineConnect=0;" parent="1" vertex="1">
          <mxGeometry x="-378" y="1061" width="77" height="54" as="geometry" />
        </mxCell>
        <mxCell id="i18mFt824C8dtEHNcT4z-38" value="" style="shape=mxgraph.cisco.computers_and_peripherals.video_camera;sketch=0;html=1;pointerEvents=1;dashed=0;fillColor=#036897;strokeColor=#ffffff;strokeWidth=2;verticalLabelPosition=bottom;verticalAlign=top;align=center;outlineConnect=0;" parent="1" vertex="1">
          <mxGeometry x="-61" y="1075.5" width="37" height="74.5" as="geometry" />
        </mxCell>
        <mxCell id="i18mFt824C8dtEHNcT4z-41" value="" style="shape=mxgraph.cisco.people.androgenous_person;sketch=0;html=1;pointerEvents=1;dashed=0;fillColor=#036897;strokeColor=#ffffff;strokeWidth=2;verticalLabelPosition=bottom;verticalAlign=top;align=center;outlineConnect=0;" parent="1" vertex="1">
          <mxGeometry x="-151" y="1061" width="69" height="82" as="geometry" />
        </mxCell>
        <mxCell id="i18mFt824C8dtEHNcT4z-42" value="" style="points=[[0.13,0.02,0],[0.5,0,0],[0.87,0.02,0],[0.885,0.4,0],[0.985,0.985,0],[0.5,1,0],[0.015,0.985,0],[0.115,0.4,0]];verticalLabelPosition=bottom;sketch=0;html=1;verticalAlign=top;aspect=fixed;align=center;pointerEvents=1;shape=mxgraph.cisco19.laptop;fillColor=#005073;strokeColor=none;" parent="1" vertex="1">
          <mxGeometry x="-430" y="1181" width="50" height="35" as="geometry" />
        </mxCell>
        <mxCell id="i18mFt824C8dtEHNcT4z-45" value="" style="shape=mxgraph.cisco.modems_and_phones.cell_phone;sketch=0;html=1;pointerEvents=1;dashed=0;fillColor=#036897;strokeColor=#ffffff;strokeWidth=2;verticalLabelPosition=bottom;verticalAlign=top;align=center;outlineConnect=0;" parent="1" vertex="1">
          <mxGeometry x="-368" y="1181" width="34" height="58" as="geometry" />
        </mxCell>
        <mxCell id="i18mFt824C8dtEHNcT4z-46" value="" style="shape=mxgraph.cisco.computers_and_peripherals.printer;html=1;pointerEvents=1;dashed=0;fillColor=#036897;strokeColor=#ffffff;strokeWidth=2;verticalLabelPosition=bottom;verticalAlign=top;align=center;outlineConnect=0;" parent="1" vertex="1">
          <mxGeometry x="-301" y="1187.25" width="91" height="34" as="geometry" />
        </mxCell>
        <mxCell id="i18mFt824C8dtEHNcT4z-47" value="" style="endArrow=none;dashed=1;html=1;rounded=0;exitX=0.5;exitY=0;exitDx=0;exitDy=0;exitPerimeter=0;entryX=0.5;entryY=1;entryDx=0;entryDy=0;entryPerimeter=0;" parent="1" target="i18mFt824C8dtEHNcT4z-37" edge="1">
          <mxGeometry width="50" height="50" relative="1" as="geometry">
            <mxPoint x="-413" y="1181" as="sourcePoint" />
            <mxPoint x="-418" y="1095.5" as="targetPoint" />
          </mxGeometry>
        </mxCell>
        <mxCell id="i18mFt824C8dtEHNcT4z-48" value="" style="endArrow=none;dashed=1;html=1;rounded=0;exitX=0.5;exitY=0;exitDx=0;exitDy=0;exitPerimeter=0;entryX=0.5;entryY=1;entryDx=0;entryDy=0;entryPerimeter=0;" parent="1" source="i18mFt824C8dtEHNcT4z-45" target="i18mFt824C8dtEHNcT4z-37" edge="1">
          <mxGeometry width="50" height="50" relative="1" as="geometry">
            <mxPoint x="-458" y="1155.5" as="sourcePoint" />
            <mxPoint x="-408" y="1105.5" as="targetPoint" />
          </mxGeometry>
        </mxCell>
        <mxCell id="i18mFt824C8dtEHNcT4z-49" value="" style="endArrow=none;dashed=1;html=1;rounded=0;exitX=0.5;exitY=0;exitDx=0;exitDy=0;exitPerimeter=0;entryX=0.5;entryY=1;entryDx=0;entryDy=0;entryPerimeter=0;" parent="1" source="i18mFt824C8dtEHNcT4z-46" target="i18mFt824C8dtEHNcT4z-37" edge="1">
          <mxGeometry width="50" height="50" relative="1" as="geometry">
            <mxPoint x="-391" y="1192.75" as="sourcePoint" />
            <mxPoint x="-341" y="1142.75" as="targetPoint" />
          </mxGeometry>
        </mxCell>
        <mxCell id="i18mFt824C8dtEHNcT4z-50" value="" style="endArrow=none;html=1;rounded=0;exitX=0.5;exitY=0;exitDx=0;exitDy=0;exitPerimeter=0;entryX=0.5;entryY=1;entryDx=0;entryDy=0;entryPerimeter=0;" parent="1" source="i18mFt824C8dtEHNcT4z-55" target="i18mFt824C8dtEHNcT4z-10" edge="1">
          <mxGeometry width="50" height="50" relative="1" as="geometry">
            <mxPoint x="24" y="1087.75" as="sourcePoint" />
            <mxPoint x="-91" y="988.25" as="targetPoint" />
          </mxGeometry>
        </mxCell>
        <mxCell id="i18mFt824C8dtEHNcT4z-51" value="" style="endArrow=none;html=1;rounded=0;exitX=0.82;exitY=0.01;exitDx=0;exitDy=0;exitPerimeter=0;entryX=0.5;entryY=1;entryDx=0;entryDy=0;entryPerimeter=0;" parent="1" source="i18mFt824C8dtEHNcT4z-54" target="i18mFt824C8dtEHNcT4z-10" edge="1">
          <mxGeometry width="50" height="50" relative="1" as="geometry">
            <mxPoint x="-131" y="1048.25" as="sourcePoint" />
            <mxPoint x="-81" y="998.25" as="targetPoint" />
          </mxGeometry>
        </mxCell>
        <mxCell id="i18mFt824C8dtEHNcT4z-52" value="" style="endArrow=none;html=1;rounded=0;entryX=0.5;entryY=1;entryDx=0;entryDy=0;entryPerimeter=0;" parent="1" source="i18mFt824C8dtEHNcT4z-41" target="i18mFt824C8dtEHNcT4z-10" edge="1">
          <mxGeometry width="50" height="50" relative="1" as="geometry">
            <mxPoint x="-121" y="1058.25" as="sourcePoint" />
            <mxPoint x="-71" y="1008.25" as="targetPoint" />
          </mxGeometry>
        </mxCell>
        <mxCell id="i18mFt824C8dtEHNcT4z-53" value="" style="endArrow=none;html=1;rounded=0;exitX=0.5;exitY=0.01;exitDx=0;exitDy=0;exitPerimeter=0;entryX=0.5;entryY=1;entryDx=0;entryDy=0;entryPerimeter=0;" parent="1" source="i18mFt824C8dtEHNcT4z-38" target="i18mFt824C8dtEHNcT4z-10" edge="1">
          <mxGeometry width="50" height="50" relative="1" as="geometry">
            <mxPoint x="-111" y="1068.25" as="sourcePoint" />
            <mxPoint x="-61" y="1018.25" as="targetPoint" />
          </mxGeometry>
        </mxCell>
        <mxCell id="i18mFt824C8dtEHNcT4z-54" value="" style="shape=mxgraph.cisco.misc.telecommuter_icon;sketch=0;html=1;pointerEvents=1;dashed=0;fillColor=#036897;strokeColor=#ffffff;strokeWidth=2;verticalLabelPosition=bottom;verticalAlign=top;align=center;outlineConnect=0;" parent="1" vertex="1">
          <mxGeometry x="-231" y="1075.5" width="62" height="53" as="geometry" />
        </mxCell>
        <mxCell id="i18mFt824C8dtEHNcT4z-55" value="" style="verticalLabelPosition=bottom;html=1;verticalAlign=top;align=center;strokeColor=none;fillColor=#00BEF2;shape=mxgraph.azure.access_control;" parent="1" vertex="1">
          <mxGeometry y="1087.75" width="50" height="50" as="geometry" />
        </mxCell>
        <mxCell id="i18mFt824C8dtEHNcT4z-56" value="" style="endArrow=none;html=1;rounded=0;exitX=0.5;exitY=0;exitDx=0;exitDy=0;exitPerimeter=0;entryX=0.5;entryY=1;entryDx=0;entryDy=0;entryPerimeter=0;" parent="1" source="i18mFt824C8dtEHNcT4z-37" target="i18mFt824C8dtEHNcT4z-9" edge="1">
          <mxGeometry width="50" height="50" relative="1" as="geometry">
            <mxPoint x="-120" y="1123.25" as="sourcePoint" />
            <mxPoint x="-93" y="1038.25" as="targetPoint" />
          </mxGeometry>
        </mxCell>
        <mxCell id="TxS4i8Arp_iMlsVurzLI-1" value="" style="shape=mxgraph.cisco.switches.class_4_5_switch;sketch=0;html=1;pointerEvents=1;dashed=0;fillColor=#036897;strokeColor=#ffffff;strokeWidth=2;verticalLabelPosition=bottom;verticalAlign=top;align=center;outlineConnect=0;" parent="1" vertex="1">
          <mxGeometry x="270" y="980" width="54" height="70" as="geometry" />
        </mxCell>
        <mxCell id="TxS4i8Arp_iMlsVurzLI-2" value="" style="shape=mxgraph.cisco.switches.class_4_5_switch;sketch=0;html=1;pointerEvents=1;dashed=0;fillColor=#036897;strokeColor=#ffffff;strokeWidth=2;verticalLabelPosition=bottom;verticalAlign=top;align=center;outlineConnect=0;" parent="1" vertex="1">
          <mxGeometry x="450" y="980" width="54" height="70" as="geometry" />
        </mxCell>
        <mxCell id="TxS4i8Arp_iMlsVurzLI-3" value="" style="shape=mxgraph.cisco.switches.class_4_5_switch;sketch=0;html=1;pointerEvents=1;dashed=0;fillColor=#036897;strokeColor=#ffffff;strokeWidth=2;verticalLabelPosition=bottom;verticalAlign=top;align=center;outlineConnect=0;" parent="1" vertex="1">
          <mxGeometry x="244" y="829.75" width="54" height="70" as="geometry" />
        </mxCell>
        <mxCell id="TxS4i8Arp_iMlsVurzLI-4" value="" style="shape=mxgraph.cisco.switches.class_4_5_switch;sketch=0;html=1;pointerEvents=1;dashed=0;fillColor=#036897;strokeColor=#ffffff;strokeWidth=2;verticalLabelPosition=bottom;verticalAlign=top;align=center;outlineConnect=0;" parent="1" vertex="1">
          <mxGeometry x="475" y="829.75" width="54" height="70" as="geometry" />
        </mxCell>
        <mxCell id="TxS4i8Arp_iMlsVurzLI-5" value="" style="endArrow=none;html=1;rounded=0;entryX=0.5;entryY=1;entryDx=0;entryDy=0;entryPerimeter=0;exitX=0.5;exitY=0;exitDx=0;exitDy=0;exitPerimeter=0;" parent="1" source="TxS4i8Arp_iMlsVurzLI-1" target="TxS4i8Arp_iMlsVurzLI-3" edge="1">
          <mxGeometry width="50" height="50" relative="1" as="geometry">
            <mxPoint x="554" y="949.75" as="sourcePoint" />
            <mxPoint x="407" y="763.75" as="targetPoint" />
          </mxGeometry>
        </mxCell>
        <mxCell id="TxS4i8Arp_iMlsVurzLI-6" value="" style="endArrow=none;html=1;rounded=0;entryX=1;entryY=0.5;entryDx=0;entryDy=0;entryPerimeter=0;exitX=0;exitY=0.5;exitDx=0;exitDy=0;exitPerimeter=0;" parent="1" source="TxS4i8Arp_iMlsVurzLI-2" target="TxS4i8Arp_iMlsVurzLI-1" edge="1">
          <mxGeometry width="50" height="50" relative="1" as="geometry">
            <mxPoint x="556" y="939.75" as="sourcePoint" />
            <mxPoint x="409" y="753.75" as="targetPoint" />
          </mxGeometry>
        </mxCell>
        <mxCell id="TxS4i8Arp_iMlsVurzLI-7" value="" style="endArrow=none;html=1;rounded=0;entryX=0.5;entryY=0;entryDx=0;entryDy=0;entryPerimeter=0;exitX=0.5;exitY=1;exitDx=0;exitDy=0;exitPerimeter=0;" parent="1" source="TxS4i8Arp_iMlsVurzLI-4" target="TxS4i8Arp_iMlsVurzLI-2" edge="1">
          <mxGeometry width="50" height="50" relative="1" as="geometry">
            <mxPoint x="574" y="969.75" as="sourcePoint" />
            <mxPoint x="427" y="783.75" as="targetPoint" />
          </mxGeometry>
        </mxCell>
        <mxCell id="TxS4i8Arp_iMlsVurzLI-8" value="" style="shape=mxgraph.cisco.wireless.wireless_transport;sketch=0;html=1;pointerEvents=1;dashed=0;fillColor=#036897;strokeColor=#ffffff;strokeWidth=2;verticalLabelPosition=bottom;verticalAlign=top;align=center;outlineConnect=0;" parent="1" vertex="1">
          <mxGeometry x="200" y="1112.5" width="77" height="54" as="geometry" />
        </mxCell>
        <mxCell id="TxS4i8Arp_iMlsVurzLI-9" value="" style="shape=mxgraph.cisco.computers_and_peripherals.video_camera;sketch=0;html=1;pointerEvents=1;dashed=0;fillColor=#036897;strokeColor=#ffffff;strokeWidth=2;verticalLabelPosition=bottom;verticalAlign=top;align=center;outlineConnect=0;" parent="1" vertex="1">
          <mxGeometry x="517" y="1127" width="37" height="74.5" as="geometry" />
        </mxCell>
        <mxCell id="TxS4i8Arp_iMlsVurzLI-10" value="" style="shape=mxgraph.cisco.people.androgenous_person;sketch=0;html=1;pointerEvents=1;dashed=0;fillColor=#036897;strokeColor=#ffffff;strokeWidth=2;verticalLabelPosition=bottom;verticalAlign=top;align=center;outlineConnect=0;" parent="1" vertex="1">
          <mxGeometry x="427" y="1112.5" width="69" height="82" as="geometry" />
        </mxCell>
        <mxCell id="TxS4i8Arp_iMlsVurzLI-11" value="" style="points=[[0.13,0.02,0],[0.5,0,0],[0.87,0.02,0],[0.885,0.4,0],[0.985,0.985,0],[0.5,1,0],[0.015,0.985,0],[0.115,0.4,0]];verticalLabelPosition=bottom;sketch=0;html=1;verticalAlign=top;aspect=fixed;align=center;pointerEvents=1;shape=mxgraph.cisco19.laptop;fillColor=#005073;strokeColor=none;" parent="1" vertex="1">
          <mxGeometry x="920" y="1253.75" width="50" height="35" as="geometry" />
        </mxCell>
        <mxCell id="TxS4i8Arp_iMlsVurzLI-12" value="" style="shape=mxgraph.cisco.modems_and_phones.cell_phone;sketch=0;html=1;pointerEvents=1;dashed=0;fillColor=#036897;strokeColor=#ffffff;strokeWidth=2;verticalLabelPosition=bottom;verticalAlign=top;align=center;outlineConnect=0;" parent="1" vertex="1">
          <mxGeometry x="210" y="1232.5" width="34" height="58" as="geometry" />
        </mxCell>
        <mxCell id="TxS4i8Arp_iMlsVurzLI-13" value="" style="shape=mxgraph.cisco.computers_and_peripherals.printer;html=1;pointerEvents=1;dashed=0;fillColor=#036897;strokeColor=#ffffff;strokeWidth=2;verticalLabelPosition=bottom;verticalAlign=top;align=center;outlineConnect=0;" parent="1" vertex="1">
          <mxGeometry x="277" y="1238.75" width="91" height="34" as="geometry" />
        </mxCell>
        <mxCell id="TxS4i8Arp_iMlsVurzLI-14" value="" style="endArrow=none;dashed=1;html=1;rounded=0;exitX=0.5;exitY=0;exitDx=0;exitDy=0;exitPerimeter=0;entryX=0.5;entryY=1;entryDx=0;entryDy=0;entryPerimeter=0;" parent="1" target="TxS4i8Arp_iMlsVurzLI-8" edge="1">
          <mxGeometry width="50" height="50" relative="1" as="geometry">
            <mxPoint x="145" y="1238.75" as="sourcePoint" />
            <mxPoint x="160" y="1147" as="targetPoint" />
          </mxGeometry>
        </mxCell>
        <mxCell id="TxS4i8Arp_iMlsVurzLI-15" value="" style="endArrow=none;dashed=1;html=1;rounded=0;exitX=0.5;exitY=0;exitDx=0;exitDy=0;exitPerimeter=0;entryX=0.5;entryY=1;entryDx=0;entryDy=0;entryPerimeter=0;" parent="1" source="TxS4i8Arp_iMlsVurzLI-12" target="TxS4i8Arp_iMlsVurzLI-8" edge="1">
          <mxGeometry width="50" height="50" relative="1" as="geometry">
            <mxPoint x="120" y="1207" as="sourcePoint" />
            <mxPoint x="170" y="1157" as="targetPoint" />
          </mxGeometry>
        </mxCell>
        <mxCell id="TxS4i8Arp_iMlsVurzLI-16" value="" style="endArrow=none;dashed=1;html=1;rounded=0;exitX=0.5;exitY=0;exitDx=0;exitDy=0;exitPerimeter=0;entryX=0.5;entryY=1;entryDx=0;entryDy=0;entryPerimeter=0;" parent="1" source="TxS4i8Arp_iMlsVurzLI-13" target="TxS4i8Arp_iMlsVurzLI-8" edge="1">
          <mxGeometry width="50" height="50" relative="1" as="geometry">
            <mxPoint x="187" y="1244.25" as="sourcePoint" />
            <mxPoint x="237" y="1194.25" as="targetPoint" />
          </mxGeometry>
        </mxCell>
        <mxCell id="TxS4i8Arp_iMlsVurzLI-17" value="" style="endArrow=none;html=1;rounded=0;exitX=0.5;exitY=0;exitDx=0;exitDy=0;exitPerimeter=0;entryX=0.5;entryY=1;entryDx=0;entryDy=0;entryPerimeter=0;" parent="1" source="TxS4i8Arp_iMlsVurzLI-22" target="TxS4i8Arp_iMlsVurzLI-2" edge="1">
          <mxGeometry width="50" height="50" relative="1" as="geometry">
            <mxPoint x="437" y="1089.75" as="sourcePoint" />
            <mxPoint x="487" y="1039.75" as="targetPoint" />
          </mxGeometry>
        </mxCell>
        <mxCell id="TxS4i8Arp_iMlsVurzLI-18" value="" style="endArrow=none;html=1;rounded=0;exitX=0.82;exitY=0.01;exitDx=0;exitDy=0;exitPerimeter=0;entryX=0.5;entryY=1;entryDx=0;entryDy=0;entryPerimeter=0;" parent="1" source="TxS4i8Arp_iMlsVurzLI-21" target="TxS4i8Arp_iMlsVurzLI-2" edge="1">
          <mxGeometry width="50" height="50" relative="1" as="geometry">
            <mxPoint x="447" y="1099.75" as="sourcePoint" />
            <mxPoint x="497" y="1049.75" as="targetPoint" />
          </mxGeometry>
        </mxCell>
        <mxCell id="TxS4i8Arp_iMlsVurzLI-19" value="" style="endArrow=none;html=1;rounded=0;entryX=0.5;entryY=1;entryDx=0;entryDy=0;entryPerimeter=0;" parent="1" source="TxS4i8Arp_iMlsVurzLI-10" target="TxS4i8Arp_iMlsVurzLI-2" edge="1">
          <mxGeometry width="50" height="50" relative="1" as="geometry">
            <mxPoint x="457" y="1109.75" as="sourcePoint" />
            <mxPoint x="507" y="1059.75" as="targetPoint" />
          </mxGeometry>
        </mxCell>
        <mxCell id="TxS4i8Arp_iMlsVurzLI-20" value="" style="endArrow=none;html=1;rounded=0;exitX=0.5;exitY=0.01;exitDx=0;exitDy=0;exitPerimeter=0;entryX=0.5;entryY=1;entryDx=0;entryDy=0;entryPerimeter=0;" parent="1" source="TxS4i8Arp_iMlsVurzLI-9" target="TxS4i8Arp_iMlsVurzLI-2" edge="1">
          <mxGeometry width="50" height="50" relative="1" as="geometry">
            <mxPoint x="467" y="1119.75" as="sourcePoint" />
            <mxPoint x="517" y="1069.75" as="targetPoint" />
          </mxGeometry>
        </mxCell>
        <mxCell id="TxS4i8Arp_iMlsVurzLI-21" value="" style="shape=mxgraph.cisco.misc.telecommuter_icon;sketch=0;html=1;pointerEvents=1;dashed=0;fillColor=#036897;strokeColor=#ffffff;strokeWidth=2;verticalLabelPosition=bottom;verticalAlign=top;align=center;outlineConnect=0;" parent="1" vertex="1">
          <mxGeometry x="347" y="1127" width="62" height="53" as="geometry" />
        </mxCell>
        <mxCell id="TxS4i8Arp_iMlsVurzLI-22" value="" style="verticalLabelPosition=bottom;html=1;verticalAlign=top;align=center;strokeColor=none;fillColor=#00BEF2;shape=mxgraph.azure.access_control;" parent="1" vertex="1">
          <mxGeometry x="577" y="1139.25" width="50" height="50" as="geometry" />
        </mxCell>
        <mxCell id="TxS4i8Arp_iMlsVurzLI-23" value="" style="endArrow=none;html=1;rounded=0;exitX=0.5;exitY=0;exitDx=0;exitDy=0;exitPerimeter=0;entryX=0.5;entryY=1;entryDx=0;entryDy=0;entryPerimeter=0;" parent="1" source="TxS4i8Arp_iMlsVurzLI-8" target="TxS4i8Arp_iMlsVurzLI-1" edge="1">
          <mxGeometry width="50" height="50" relative="1" as="geometry">
            <mxPoint x="458" y="1174.75" as="sourcePoint" />
            <mxPoint x="485" y="1089.75" as="targetPoint" />
          </mxGeometry>
        </mxCell>
        <mxCell id="TxS4i8Arp_iMlsVurzLI-24" value="" style="shape=mxgraph.cisco.switches.class_4_5_switch;sketch=0;html=1;pointerEvents=1;dashed=0;fillColor=#036897;strokeColor=#ffffff;strokeWidth=2;verticalLabelPosition=bottom;verticalAlign=top;align=center;outlineConnect=0;" parent="1" vertex="1">
          <mxGeometry x="1005" y="952.25" width="54" height="70" as="geometry" />
        </mxCell>
        <mxCell id="TxS4i8Arp_iMlsVurzLI-25" value="" style="shape=mxgraph.cisco.switches.class_4_5_switch;sketch=0;html=1;pointerEvents=1;dashed=0;fillColor=#036897;strokeColor=#ffffff;strokeWidth=2;verticalLabelPosition=bottom;verticalAlign=top;align=center;outlineConnect=0;" parent="1" vertex="1">
          <mxGeometry x="1150" y="828.75" width="54" height="70" as="geometry" />
        </mxCell>
        <mxCell id="TxS4i8Arp_iMlsVurzLI-26" value="" style="shape=mxgraph.cisco.switches.class_4_5_switch;sketch=0;html=1;pointerEvents=1;dashed=0;fillColor=#036897;strokeColor=#ffffff;strokeWidth=2;verticalLabelPosition=bottom;verticalAlign=top;align=center;outlineConnect=0;" parent="1" vertex="1">
          <mxGeometry x="880" y="826.25" width="54" height="71.75" as="geometry" />
        </mxCell>
        <mxCell id="TxS4i8Arp_iMlsVurzLI-28" value="" style="endArrow=none;html=1;rounded=0;entryX=0.5;entryY=1;entryDx=0;entryDy=0;entryPerimeter=0;exitX=0.5;exitY=0;exitDx=0;exitDy=0;exitPerimeter=0;" parent="1" source="TxS4i8Arp_iMlsVurzLI-24" target="TxS4i8Arp_iMlsVurzLI-26" edge="1">
          <mxGeometry width="50" height="50" relative="1" as="geometry">
            <mxPoint x="1317" y="936.25" as="sourcePoint" />
            <mxPoint x="1170" y="750.25" as="targetPoint" />
          </mxGeometry>
        </mxCell>
        <mxCell id="TxS4i8Arp_iMlsVurzLI-29" value="" style="endArrow=none;html=1;rounded=0;entryX=0.5;entryY=0;entryDx=0;entryDy=0;entryPerimeter=0;exitX=0.5;exitY=1;exitDx=0;exitDy=0;exitPerimeter=0;" parent="1" source="TxS4i8Arp_iMlsVurzLI-25" target="TxS4i8Arp_iMlsVurzLI-24" edge="1">
          <mxGeometry width="50" height="50" relative="1" as="geometry">
            <mxPoint x="1319" y="926.25" as="sourcePoint" />
            <mxPoint x="1172" y="740.25" as="targetPoint" />
          </mxGeometry>
        </mxCell>
        <mxCell id="TxS4i8Arp_iMlsVurzLI-30" value="" style="endArrow=none;html=1;rounded=0;entryX=0.5;entryY=0;entryDx=0;entryDy=0;entryPerimeter=0;exitX=0.5;exitY=1;exitDx=0;exitDy=0;exitPerimeter=0;" parent="1" source="i18mFt824C8dtEHNcT4z-3" target="TxS4i8Arp_iMlsVurzLI-25" edge="1">
          <mxGeometry width="50" height="50" relative="1" as="geometry">
            <mxPoint x="1525" y="888" as="sourcePoint" />
            <mxPoint x="1450" y="772" as="targetPoint" />
          </mxGeometry>
        </mxCell>
        <mxCell id="TxS4i8Arp_iMlsVurzLI-31" value="" style="shape=mxgraph.cisco.wireless.wireless_transport;sketch=0;html=1;pointerEvents=1;dashed=0;fillColor=#036897;strokeColor=#ffffff;strokeWidth=2;verticalLabelPosition=bottom;verticalAlign=top;align=center;outlineConnect=0;" parent="1" vertex="1">
          <mxGeometry x="995" y="1127.5" width="77" height="54" as="geometry" />
        </mxCell>
        <mxCell id="TxS4i8Arp_iMlsVurzLI-32" value="" style="shape=mxgraph.cisco.computers_and_peripherals.video_camera;sketch=0;html=1;pointerEvents=1;dashed=0;fillColor=#036897;strokeColor=#ffffff;strokeWidth=2;verticalLabelPosition=bottom;verticalAlign=top;align=center;outlineConnect=0;" parent="1" vertex="1">
          <mxGeometry x="1234" y="1036.75" width="37" height="74.5" as="geometry" />
        </mxCell>
        <mxCell id="TxS4i8Arp_iMlsVurzLI-33" value="" style="shape=mxgraph.cisco.people.androgenous_person;sketch=0;html=1;pointerEvents=1;dashed=0;fillColor=#036897;strokeColor=#ffffff;strokeWidth=2;verticalLabelPosition=bottom;verticalAlign=top;align=center;outlineConnect=0;" parent="1" vertex="1">
          <mxGeometry x="1144" y="1022.25" width="69" height="82" as="geometry" />
        </mxCell>
        <mxCell id="TxS4i8Arp_iMlsVurzLI-34" value="" style="points=[[0.13,0.02,0],[0.5,0,0],[0.87,0.02,0],[0.885,0.4,0],[0.985,0.985,0],[0.5,1,0],[0.015,0.985,0],[0.115,0.4,0]];verticalLabelPosition=bottom;sketch=0;html=1;verticalAlign=top;aspect=fixed;align=center;pointerEvents=1;shape=mxgraph.cisco19.laptop;fillColor=#005073;strokeColor=none;" parent="1" vertex="1">
          <mxGeometry x="120" y="1237.75" width="50" height="35" as="geometry" />
        </mxCell>
        <mxCell id="TxS4i8Arp_iMlsVurzLI-35" value="" style="shape=mxgraph.cisco.modems_and_phones.cell_phone;sketch=0;html=1;pointerEvents=1;dashed=0;fillColor=#036897;strokeColor=#ffffff;strokeWidth=2;verticalLabelPosition=bottom;verticalAlign=top;align=center;outlineConnect=0;" parent="1" vertex="1">
          <mxGeometry x="1005" y="1247.5" width="34" height="58" as="geometry" />
        </mxCell>
        <mxCell id="TxS4i8Arp_iMlsVurzLI-36" value="" style="shape=mxgraph.cisco.computers_and_peripherals.printer;html=1;pointerEvents=1;dashed=0;fillColor=#036897;strokeColor=#ffffff;strokeWidth=2;verticalLabelPosition=bottom;verticalAlign=top;align=center;outlineConnect=0;" parent="1" vertex="1">
          <mxGeometry x="1080" y="1254.25" width="91" height="34" as="geometry" />
        </mxCell>
        <mxCell id="TxS4i8Arp_iMlsVurzLI-37" value="" style="endArrow=none;dashed=1;html=1;rounded=0;exitX=0.5;exitY=0;exitDx=0;exitDy=0;exitPerimeter=0;entryX=0.5;entryY=1;entryDx=0;entryDy=0;entryPerimeter=0;" parent="1" source="TxS4i8Arp_iMlsVurzLI-11" target="TxS4i8Arp_iMlsVurzLI-31" edge="1">
          <mxGeometry width="50" height="50" relative="1" as="geometry">
            <mxPoint x="960" y="1247.5" as="sourcePoint" />
            <mxPoint x="955" y="1162" as="targetPoint" />
          </mxGeometry>
        </mxCell>
        <mxCell id="TxS4i8Arp_iMlsVurzLI-38" value="" style="endArrow=none;dashed=1;html=1;rounded=0;exitX=0.5;exitY=0;exitDx=0;exitDy=0;exitPerimeter=0;entryX=0.5;entryY=1;entryDx=0;entryDy=0;entryPerimeter=0;" parent="1" source="TxS4i8Arp_iMlsVurzLI-35" target="TxS4i8Arp_iMlsVurzLI-31" edge="1">
          <mxGeometry width="50" height="50" relative="1" as="geometry">
            <mxPoint x="915" y="1222" as="sourcePoint" />
            <mxPoint x="965" y="1172" as="targetPoint" />
          </mxGeometry>
        </mxCell>
        <mxCell id="TxS4i8Arp_iMlsVurzLI-39" value="" style="endArrow=none;dashed=1;html=1;rounded=0;exitX=0.5;exitY=0;exitDx=0;exitDy=0;exitPerimeter=0;entryX=0.5;entryY=1;entryDx=0;entryDy=0;entryPerimeter=0;" parent="1" source="TxS4i8Arp_iMlsVurzLI-36" target="TxS4i8Arp_iMlsVurzLI-31" edge="1">
          <mxGeometry width="50" height="50" relative="1" as="geometry">
            <mxPoint x="1117.5" y="1253.75" as="sourcePoint" />
            <mxPoint x="1032" y="1209.25" as="targetPoint" />
          </mxGeometry>
        </mxCell>
        <mxCell id="TxS4i8Arp_iMlsVurzLI-40" value="" style="endArrow=none;html=1;rounded=0;exitX=0.5;exitY=0;exitDx=0;exitDy=0;exitPerimeter=0;entryX=0.5;entryY=1;entryDx=0;entryDy=0;entryPerimeter=0;" parent="1" source="TxS4i8Arp_iMlsVurzLI-45" target="TxS4i8Arp_iMlsVurzLI-25" edge="1">
          <mxGeometry width="50" height="50" relative="1" as="geometry">
            <mxPoint x="1200" y="1076.25" as="sourcePoint" />
            <mxPoint x="1250" y="1026.25" as="targetPoint" />
          </mxGeometry>
        </mxCell>
        <mxCell id="TxS4i8Arp_iMlsVurzLI-41" value="" style="endArrow=none;html=1;rounded=0;exitX=0.82;exitY=0.01;exitDx=0;exitDy=0;exitPerimeter=0;entryX=0.5;entryY=1;entryDx=0;entryDy=0;entryPerimeter=0;" parent="1" source="TxS4i8Arp_iMlsVurzLI-44" target="TxS4i8Arp_iMlsVurzLI-25" edge="1">
          <mxGeometry width="50" height="50" relative="1" as="geometry">
            <mxPoint x="1210" y="1086.25" as="sourcePoint" />
            <mxPoint x="1260" y="1036.25" as="targetPoint" />
          </mxGeometry>
        </mxCell>
        <mxCell id="TxS4i8Arp_iMlsVurzLI-42" value="" style="endArrow=none;html=1;rounded=0;entryX=0.5;entryY=1;entryDx=0;entryDy=0;entryPerimeter=0;" parent="1" source="TxS4i8Arp_iMlsVurzLI-33" target="TxS4i8Arp_iMlsVurzLI-25" edge="1">
          <mxGeometry width="50" height="50" relative="1" as="geometry">
            <mxPoint x="1220" y="1096.25" as="sourcePoint" />
            <mxPoint x="1270" y="1046.25" as="targetPoint" />
          </mxGeometry>
        </mxCell>
        <mxCell id="TxS4i8Arp_iMlsVurzLI-43" value="" style="endArrow=none;html=1;rounded=0;exitX=0.5;exitY=0.01;exitDx=0;exitDy=0;exitPerimeter=0;entryX=0.5;entryY=1;entryDx=0;entryDy=0;entryPerimeter=0;" parent="1" source="TxS4i8Arp_iMlsVurzLI-32" target="TxS4i8Arp_iMlsVurzLI-25" edge="1">
          <mxGeometry width="50" height="50" relative="1" as="geometry">
            <mxPoint x="1230" y="1106.25" as="sourcePoint" />
            <mxPoint x="1280" y="1056.25" as="targetPoint" />
          </mxGeometry>
        </mxCell>
        <mxCell id="TxS4i8Arp_iMlsVurzLI-44" value="" style="shape=mxgraph.cisco.misc.telecommuter_icon;sketch=0;html=1;pointerEvents=1;dashed=0;fillColor=#036897;strokeColor=#ffffff;strokeWidth=2;verticalLabelPosition=bottom;verticalAlign=top;align=center;outlineConnect=0;" parent="1" vertex="1">
          <mxGeometry x="1064" y="1036.75" width="62" height="53" as="geometry" />
        </mxCell>
        <mxCell id="TxS4i8Arp_iMlsVurzLI-45" value="" style="verticalLabelPosition=bottom;html=1;verticalAlign=top;align=center;strokeColor=none;fillColor=#00BEF2;shape=mxgraph.azure.access_control;" parent="1" vertex="1">
          <mxGeometry x="1294" y="1049" width="50" height="50" as="geometry" />
        </mxCell>
        <mxCell id="TxS4i8Arp_iMlsVurzLI-46" value="" style="endArrow=none;html=1;rounded=0;exitX=0.5;exitY=0;exitDx=0;exitDy=0;exitPerimeter=0;entryX=0.5;entryY=1;entryDx=0;entryDy=0;entryPerimeter=0;" parent="1" source="TxS4i8Arp_iMlsVurzLI-31" target="TxS4i8Arp_iMlsVurzLI-24" edge="1">
          <mxGeometry width="50" height="50" relative="1" as="geometry">
            <mxPoint x="1221" y="1161.25" as="sourcePoint" />
            <mxPoint x="1248" y="1076.25" as="targetPoint" />
          </mxGeometry>
        </mxCell>
        <mxCell id="TxS4i8Arp_iMlsVurzLI-48" value="" style="endArrow=none;html=1;rounded=0;entryX=0.5;entryY=1;entryDx=0;entryDy=0;entryPerimeter=0;exitX=0.5;exitY=0;exitDx=0;exitDy=0;exitPerimeter=0;" parent="1" source="TxS4i8Arp_iMlsVurzLI-26" target="i18mFt824C8dtEHNcT4z-3" edge="1">
          <mxGeometry width="50" height="50" relative="1" as="geometry">
            <mxPoint x="220" y="818" as="sourcePoint" />
            <mxPoint x="332" y="742" as="targetPoint" />
          </mxGeometry>
        </mxCell>
        <mxCell id="TxS4i8Arp_iMlsVurzLI-49" value="" style="endArrow=none;html=1;rounded=0;entryX=0.5;entryY=1;entryDx=0;entryDy=0;entryPerimeter=0;exitX=0.5;exitY=0;exitDx=0;exitDy=0;exitPerimeter=0;" parent="1" source="TxS4i8Arp_iMlsVurzLI-4" target="i18mFt824C8dtEHNcT4z-2" edge="1">
          <mxGeometry width="50" height="50" relative="1" as="geometry">
            <mxPoint x="225.13" y="829" as="sourcePoint" />
            <mxPoint x="337.13" y="753" as="targetPoint" />
          </mxGeometry>
        </mxCell>
        <mxCell id="TxS4i8Arp_iMlsVurzLI-50" value="" style="endArrow=none;html=1;rounded=0;entryX=0.5;entryY=1;entryDx=0;entryDy=0;entryPerimeter=0;exitX=0.5;exitY=0;exitDx=0;exitDy=0;exitPerimeter=0;" parent="1" source="TxS4i8Arp_iMlsVurzLI-3" target="i18mFt824C8dtEHNcT4z-2" edge="1">
          <mxGeometry width="50" height="50" relative="1" as="geometry">
            <mxPoint x="235.13" y="839" as="sourcePoint" />
            <mxPoint x="347.13" y="763" as="targetPoint" />
          </mxGeometry>
        </mxCell>
        <mxCell id="TxS4i8Arp_iMlsVurzLI-51" value="" style="shape=mxgraph.cisco.servers.fileserver;sketch=0;html=1;pointerEvents=1;dashed=0;fillColor=#036897;strokeColor=#ffffff;strokeWidth=2;verticalLabelPosition=bottom;verticalAlign=top;align=center;outlineConnect=0;" parent="1" vertex="1">
          <mxGeometry x="821.5" y="952.25" width="43" height="62" as="geometry" />
        </mxCell>
        <mxCell id="TxS4i8Arp_iMlsVurzLI-53" value="" style="shape=mxgraph.cisco.servers.standard_host;sketch=0;html=1;pointerEvents=1;dashed=0;fillColor=#036897;strokeColor=#ffffff;strokeWidth=2;verticalLabelPosition=bottom;verticalAlign=top;align=center;outlineConnect=0;" parent="1" vertex="1">
          <mxGeometry x="760.5" y="953.25" width="43" height="62" as="geometry" />
        </mxCell>
        <mxCell id="TxS4i8Arp_iMlsVurzLI-54" value="" style="shape=mxgraph.cisco.servers.storage_server;sketch=0;html=1;pointerEvents=1;dashed=0;fillColor=#036897;strokeColor=#ffffff;strokeWidth=2;verticalLabelPosition=bottom;verticalAlign=top;align=center;outlineConnect=0;" parent="1" vertex="1">
          <mxGeometry x="880.5" y="953.25" width="49" height="65" as="geometry" />
        </mxCell>
        <mxCell id="TxS4i8Arp_iMlsVurzLI-55" value="" style="endArrow=none;html=1;rounded=0;entryX=0.5;entryY=1;entryDx=0;entryDy=0;entryPerimeter=0;exitX=0.5;exitY=0;exitDx=0;exitDy=0;exitPerimeter=0;" parent="1" source="TxS4i8Arp_iMlsVurzLI-54" target="TxS4i8Arp_iMlsVurzLI-26" edge="1">
          <mxGeometry width="50" height="50" relative="1" as="geometry">
            <mxPoint x="1080" y="976.25" as="sourcePoint" />
            <mxPoint x="1058" y="896.25" as="targetPoint" />
          </mxGeometry>
        </mxCell>
        <mxCell id="TxS4i8Arp_iMlsVurzLI-56" value="" style="endArrow=none;html=1;rounded=0;entryX=0.5;entryY=0;entryDx=0;entryDy=0;entryPerimeter=0;exitX=0.5;exitY=1;exitDx=0;exitDy=0;exitPerimeter=0;" parent="1" source="TxS4i8Arp_iMlsVurzLI-26" target="TxS4i8Arp_iMlsVurzLI-51" edge="1">
          <mxGeometry width="50" height="50" relative="1" as="geometry">
            <mxPoint x="1090" y="986.25" as="sourcePoint" />
            <mxPoint x="1068" y="906.25" as="targetPoint" />
          </mxGeometry>
        </mxCell>
        <mxCell id="TxS4i8Arp_iMlsVurzLI-57" value="" style="endArrow=none;html=1;rounded=0;entryX=0.5;entryY=1;entryDx=0;entryDy=0;entryPerimeter=0;exitX=0.5;exitY=0;exitDx=0;exitDy=0;exitPerimeter=0;" parent="1" source="TxS4i8Arp_iMlsVurzLI-53" target="TxS4i8Arp_iMlsVurzLI-26" edge="1">
          <mxGeometry width="50" height="50" relative="1" as="geometry">
            <mxPoint x="1100" y="996.25" as="sourcePoint" />
            <mxPoint x="1078" y="916.25" as="targetPoint" />
          </mxGeometry>
        </mxCell>
        <mxCell id="TxS4i8Arp_iMlsVurzLI-60" value="" style="shape=mxgraph.cisco.computers_and_peripherals.speaker;html=1;pointerEvents=1;dashed=0;fillColor=#036897;strokeColor=#ffffff;strokeWidth=2;verticalLabelPosition=bottom;verticalAlign=top;align=center;outlineConnect=0;" parent="1" vertex="1">
          <mxGeometry x="650" y="1134.5" width="43" height="63" as="geometry" />
        </mxCell>
        <mxCell id="TxS4i8Arp_iMlsVurzLI-61" value="" style="endArrow=none;html=1;rounded=0;exitX=0.75;exitY=0;exitDx=0;exitDy=0;exitPerimeter=0;entryX=0.5;entryY=1;entryDx=0;entryDy=0;entryPerimeter=0;" parent="1" source="TxS4i8Arp_iMlsVurzLI-60" target="TxS4i8Arp_iMlsVurzLI-2" edge="1">
          <mxGeometry width="50" height="50" relative="1" as="geometry">
            <mxPoint x="684.25" y="1132.75" as="sourcePoint" />
            <mxPoint x="495" y="1059.75" as="targetPoint" />
          </mxGeometry>
        </mxCell>
        <mxCell id="TxS4i8Arp_iMlsVurzLI-62" value="" style="shape=mxgraph.cisco.switches.class_4_5_switch;sketch=0;html=1;pointerEvents=1;dashed=0;fillColor=#036897;strokeColor=#ffffff;strokeWidth=2;verticalLabelPosition=bottom;verticalAlign=top;align=center;outlineConnect=0;" parent="1" vertex="1">
          <mxGeometry x="1523.5" y="928.25" width="54" height="70" as="geometry" />
        </mxCell>
        <mxCell id="TxS4i8Arp_iMlsVurzLI-63" value="" style="shape=mxgraph.cisco.switches.class_4_5_switch;sketch=0;html=1;pointerEvents=1;dashed=0;fillColor=#036897;strokeColor=#ffffff;strokeWidth=2;verticalLabelPosition=bottom;verticalAlign=top;align=center;outlineConnect=0;" parent="1" vertex="1">
          <mxGeometry x="1703.5" y="928.25" width="54" height="70" as="geometry" />
        </mxCell>
        <mxCell id="TxS4i8Arp_iMlsVurzLI-64" value="" style="shape=mxgraph.cisco.switches.class_4_5_switch;sketch=0;html=1;pointerEvents=1;dashed=0;fillColor=#036897;strokeColor=#ffffff;strokeWidth=2;verticalLabelPosition=bottom;verticalAlign=top;align=center;outlineConnect=0;" parent="1" vertex="1">
          <mxGeometry x="1501.5" y="778.25" width="54" height="70" as="geometry" />
        </mxCell>
        <mxCell id="TxS4i8Arp_iMlsVurzLI-65" value="" style="shape=mxgraph.cisco.switches.class_4_5_switch;sketch=0;html=1;pointerEvents=1;dashed=0;fillColor=#036897;strokeColor=#ffffff;strokeWidth=2;verticalLabelPosition=bottom;verticalAlign=top;align=center;outlineConnect=0;" parent="1" vertex="1">
          <mxGeometry x="1721.5" y="778.25" width="54" height="70" as="geometry" />
        </mxCell>
        <mxCell id="TxS4i8Arp_iMlsVurzLI-66" value="" style="endArrow=none;html=1;rounded=0;entryX=0.5;entryY=1;entryDx=0;entryDy=0;entryPerimeter=0;exitX=0.5;exitY=0;exitDx=0;exitDy=0;exitPerimeter=0;" parent="1" source="TxS4i8Arp_iMlsVurzLI-62" target="TxS4i8Arp_iMlsVurzLI-64" edge="1">
          <mxGeometry width="50" height="50" relative="1" as="geometry">
            <mxPoint x="1800.5" y="898.25" as="sourcePoint" />
            <mxPoint x="1653.5" y="712.25" as="targetPoint" />
          </mxGeometry>
        </mxCell>
        <mxCell id="TxS4i8Arp_iMlsVurzLI-67" value="" style="endArrow=none;html=1;rounded=0;entryX=1;entryY=0.5;entryDx=0;entryDy=0;entryPerimeter=0;exitX=0;exitY=0.5;exitDx=0;exitDy=0;exitPerimeter=0;" parent="1" source="TxS4i8Arp_iMlsVurzLI-63" target="TxS4i8Arp_iMlsVurzLI-62" edge="1">
          <mxGeometry width="50" height="50" relative="1" as="geometry">
            <mxPoint x="1802.5" y="888.25" as="sourcePoint" />
            <mxPoint x="1655.5" y="702.25" as="targetPoint" />
          </mxGeometry>
        </mxCell>
        <mxCell id="TxS4i8Arp_iMlsVurzLI-68" value="" style="endArrow=none;html=1;rounded=0;entryX=0.5;entryY=0;entryDx=0;entryDy=0;entryPerimeter=0;exitX=0.5;exitY=1;exitDx=0;exitDy=0;exitPerimeter=0;" parent="1" source="TxS4i8Arp_iMlsVurzLI-65" target="TxS4i8Arp_iMlsVurzLI-63" edge="1">
          <mxGeometry width="50" height="50" relative="1" as="geometry">
            <mxPoint x="1820.5" y="918.25" as="sourcePoint" />
            <mxPoint x="1673.5" y="732.25" as="targetPoint" />
          </mxGeometry>
        </mxCell>
        <mxCell id="TxS4i8Arp_iMlsVurzLI-69" value="" style="shape=mxgraph.cisco.wireless.wireless_transport;sketch=0;html=1;pointerEvents=1;dashed=0;fillColor=#036897;strokeColor=#ffffff;strokeWidth=2;verticalLabelPosition=bottom;verticalAlign=top;align=center;outlineConnect=0;" parent="1" vertex="1">
          <mxGeometry x="1446.5" y="1061" width="77" height="54" as="geometry" />
        </mxCell>
        <mxCell id="TxS4i8Arp_iMlsVurzLI-70" value="" style="shape=mxgraph.cisco.computers_and_peripherals.video_camera;sketch=0;html=1;pointerEvents=1;dashed=0;fillColor=#036897;strokeColor=#ffffff;strokeWidth=2;verticalLabelPosition=bottom;verticalAlign=top;align=center;outlineConnect=0;" parent="1" vertex="1">
          <mxGeometry x="1713.25" y="1078" width="37" height="74.5" as="geometry" />
        </mxCell>
        <mxCell id="TxS4i8Arp_iMlsVurzLI-72" value="" style="points=[[0.13,0.02,0],[0.5,0,0],[0.87,0.02,0],[0.885,0.4,0],[0.985,0.985,0],[0.5,1,0],[0.015,0.985,0],[0.115,0.4,0]];verticalLabelPosition=bottom;sketch=0;html=1;verticalAlign=top;aspect=fixed;align=center;pointerEvents=1;shape=mxgraph.cisco19.laptop;fillColor=#005073;strokeColor=none;" parent="1" vertex="1">
          <mxGeometry x="1394.5" y="1171" width="50" height="35" as="geometry" />
        </mxCell>
        <mxCell id="TxS4i8Arp_iMlsVurzLI-73" value="" style="shape=mxgraph.cisco.modems_and_phones.cell_phone;sketch=0;html=1;pointerEvents=1;dashed=0;fillColor=#036897;strokeColor=#ffffff;strokeWidth=2;verticalLabelPosition=bottom;verticalAlign=top;align=center;outlineConnect=0;" parent="1" vertex="1">
          <mxGeometry x="1456.5" y="1181" width="34" height="58" as="geometry" />
        </mxCell>
        <mxCell id="TxS4i8Arp_iMlsVurzLI-75" value="" style="endArrow=none;dashed=1;html=1;rounded=0;exitX=0.5;exitY=0;exitDx=0;exitDy=0;exitPerimeter=0;entryX=0.5;entryY=1;entryDx=0;entryDy=0;entryPerimeter=0;" parent="1" target="TxS4i8Arp_iMlsVurzLI-69" edge="1">
          <mxGeometry width="50" height="50" relative="1" as="geometry">
            <mxPoint x="1411.5" y="1181" as="sourcePoint" />
            <mxPoint x="1406.5" y="1095.5" as="targetPoint" />
          </mxGeometry>
        </mxCell>
        <mxCell id="TxS4i8Arp_iMlsVurzLI-76" value="" style="endArrow=none;dashed=1;html=1;rounded=0;exitX=0.5;exitY=0;exitDx=0;exitDy=0;exitPerimeter=0;entryX=0.5;entryY=1;entryDx=0;entryDy=0;entryPerimeter=0;" parent="1" source="TxS4i8Arp_iMlsVurzLI-73" target="TxS4i8Arp_iMlsVurzLI-69" edge="1">
          <mxGeometry width="50" height="50" relative="1" as="geometry">
            <mxPoint x="1366.5" y="1155.5" as="sourcePoint" />
            <mxPoint x="1416.5" y="1105.5" as="targetPoint" />
          </mxGeometry>
        </mxCell>
        <mxCell id="TxS4i8Arp_iMlsVurzLI-78" value="" style="endArrow=none;html=1;rounded=0;exitX=0.5;exitY=0;exitDx=0;exitDy=0;exitPerimeter=0;entryX=0.5;entryY=1;entryDx=0;entryDy=0;entryPerimeter=0;" parent="1" source="TxS4i8Arp_iMlsVurzLI-83" target="TxS4i8Arp_iMlsVurzLI-63" edge="1">
          <mxGeometry width="50" height="50" relative="1" as="geometry">
            <mxPoint x="1848.5" y="1087.75" as="sourcePoint" />
            <mxPoint x="1733.5" y="988.25" as="targetPoint" />
          </mxGeometry>
        </mxCell>
        <mxCell id="TxS4i8Arp_iMlsVurzLI-79" value="" style="endArrow=none;html=1;rounded=0;exitX=0.82;exitY=0.01;exitDx=0;exitDy=0;exitPerimeter=0;entryX=0.5;entryY=1;entryDx=0;entryDy=0;entryPerimeter=0;" parent="1" source="TxS4i8Arp_iMlsVurzLI-82" target="TxS4i8Arp_iMlsVurzLI-63" edge="1">
          <mxGeometry width="50" height="50" relative="1" as="geometry">
            <mxPoint x="1693.5" y="1048.25" as="sourcePoint" />
            <mxPoint x="1743.5" y="998.25" as="targetPoint" />
          </mxGeometry>
        </mxCell>
        <mxCell id="TxS4i8Arp_iMlsVurzLI-81" value="" style="endArrow=none;html=1;rounded=0;exitX=0.5;exitY=0.01;exitDx=0;exitDy=0;exitPerimeter=0;entryX=0.5;entryY=1;entryDx=0;entryDy=0;entryPerimeter=0;" parent="1" source="TxS4i8Arp_iMlsVurzLI-70" target="TxS4i8Arp_iMlsVurzLI-63" edge="1">
          <mxGeometry width="50" height="50" relative="1" as="geometry">
            <mxPoint x="1713.5" y="1068.25" as="sourcePoint" />
            <mxPoint x="1763.5" y="1018.25" as="targetPoint" />
          </mxGeometry>
        </mxCell>
        <mxCell id="TxS4i8Arp_iMlsVurzLI-82" value="" style="shape=mxgraph.cisco.misc.telecommuter_icon;sketch=0;html=1;pointerEvents=1;dashed=0;fillColor=#036897;strokeColor=#ffffff;strokeWidth=2;verticalLabelPosition=bottom;verticalAlign=top;align=center;outlineConnect=0;" parent="1" vertex="1">
          <mxGeometry x="1641.5" y="1080.5" width="62" height="53" as="geometry" />
        </mxCell>
        <mxCell id="TxS4i8Arp_iMlsVurzLI-83" value="" style="verticalLabelPosition=bottom;html=1;verticalAlign=top;align=center;strokeColor=none;fillColor=#00BEF2;shape=mxgraph.azure.access_control;" parent="1" vertex="1">
          <mxGeometry x="1760" y="1078" width="50" height="50" as="geometry" />
        </mxCell>
        <mxCell id="TxS4i8Arp_iMlsVurzLI-84" value="" style="endArrow=none;html=1;rounded=0;exitX=0.5;exitY=0;exitDx=0;exitDy=0;exitPerimeter=0;entryX=0.5;entryY=1;entryDx=0;entryDy=0;entryPerimeter=0;" parent="1" source="TxS4i8Arp_iMlsVurzLI-69" target="TxS4i8Arp_iMlsVurzLI-62" edge="1">
          <mxGeometry width="50" height="50" relative="1" as="geometry">
            <mxPoint x="1704.5" y="1123.25" as="sourcePoint" />
            <mxPoint x="1731.5" y="1038.25" as="targetPoint" />
          </mxGeometry>
        </mxCell>
        <mxCell id="TxS4i8Arp_iMlsVurzLI-85" value="" style="endArrow=none;html=1;rounded=0;entryX=0.5;entryY=0;entryDx=0;entryDy=0;entryPerimeter=0;exitX=0.5;exitY=1;exitDx=0;exitDy=0;exitPerimeter=0;" parent="1" source="i18mFt824C8dtEHNcT4z-5" target="TxS4i8Arp_iMlsVurzLI-65" edge="1">
          <mxGeometry width="50" height="50" relative="1" as="geometry">
            <mxPoint x="1062" y="1074" as="sourcePoint" />
            <mxPoint x="1208" y="1211" as="targetPoint" />
          </mxGeometry>
        </mxCell>
        <mxCell id="TxS4i8Arp_iMlsVurzLI-86" value="" style="endArrow=none;html=1;rounded=0;entryX=0.5;entryY=0;entryDx=0;entryDy=0;entryPerimeter=0;exitX=0.5;exitY=1;exitDx=0;exitDy=0;exitPerimeter=0;" parent="1" source="i18mFt824C8dtEHNcT4z-5" target="TxS4i8Arp_iMlsVurzLI-64" edge="1">
          <mxGeometry width="50" height="50" relative="1" as="geometry">
            <mxPoint x="1072" y="1084" as="sourcePoint" />
            <mxPoint x="1218" y="1221" as="targetPoint" />
          </mxGeometry>
        </mxCell>
        <mxCell id="TxS4i8Arp_iMlsVurzLI-91" value="&lt;font style=&quot;font-size: 30px;&quot;&gt;&lt;span style=&quot;font-family: Arial; font-weight: 400; text-align: left; white-space: pre-wrap; background-color: rgb(255, 255, 255);&quot;&gt;Fortigate &lt;/span&gt;&lt;span style=&quot;background-color: rgb(255, 255, 255); font-family: Arial; font-weight: 400; text-align: left; white-space: pre-wrap;&quot;&gt;200f&lt;/span&gt;&lt;/font&gt;" style="text;strokeColor=none;fillColor=none;html=1;fontSize=24;fontStyle=1;verticalAlign=middle;align=center;whiteSpace=wrap;" parent="1" vertex="1">
          <mxGeometry x="254" y="210" width="220" height="40" as="geometry" />
        </mxCell>
        <mxCell id="TxS4i8Arp_iMlsVurzLI-92" value="&lt;div style=&quot;text-align: left; font-size: 30px;&quot;&gt;&lt;font style=&quot;font-size: 30px;&quot; face=&quot;Arial&quot;&gt;&lt;span style=&quot;font-weight: 400; white-space: pre-wrap; background-color: rgb(255, 255, 255);&quot;&gt;Fortiswitch &lt;/span&gt;&lt;/font&gt;&lt;span style=&quot;background-color: rgb(255, 255, 255); font-family: Arial; font-weight: 400; white-space: pre-wrap;&quot;&gt;148F-FPOE &lt;/span&gt;&lt;/div&gt;" style="text;strokeColor=none;fillColor=none;html=1;fontSize=24;fontStyle=1;verticalAlign=top;align=center;rounded=0;horizontal=1;whiteSpace=wrap;" parent="1" vertex="1">
          <mxGeometry x="-740" y="793.25" width="350" height="40" as="geometry" />
        </mxCell>
        <mxCell id="TxS4i8Arp_iMlsVurzLI-93" value="&lt;div style=&quot;font-size: 30px;&quot;&gt;&lt;font style=&quot;font-size: 30px;&quot; face=&quot;Arial&quot;&gt;&lt;span style=&quot;font-weight: 400; white-space: pre-wrap; background-color: rgb(255, 255, 255);&quot;&gt;Fortiswitch &lt;/span&gt;&lt;/font&gt;&lt;span style=&quot;background-color: rgb(255, 255, 255); font-family: Arial; font-weight: 400; white-space: pre-wrap;&quot;&gt;448D&lt;/span&gt;&lt;/div&gt;" style="text;strokeColor=none;fillColor=none;html=1;fontSize=24;fontStyle=1;verticalAlign=middle;align=center;whiteSpace=wrap;" parent="1" vertex="1">
          <mxGeometry x="-514" y="544" width="244" height="40" as="geometry" />
        </mxCell>
        <mxCell id="TxS4i8Arp_iMlsVurzLI-94" value="&lt;span style=&quot;font-family: Arial; font-weight: 400; text-align: left; white-space: pre-wrap; background-color: rgb(255, 255, 255);&quot;&gt;&lt;font style=&quot;font-size: 30px;&quot;&gt;FortiAP 231G&lt;/font&gt;&lt;/span&gt;" style="text;strokeColor=none;fillColor=none;html=1;fontSize=24;fontStyle=1;verticalAlign=middle;align=center;whiteSpace=wrap;" parent="1" vertex="1">
          <mxGeometry x="-700" y="1065.5" width="220" height="40" as="geometry" />
        </mxCell>
        <mxCell id="TxS4i8Arp_iMlsVurzLI-96" value="&lt;div style=&quot;font-size: 30px;&quot;&gt;&lt;font face=&quot;Arial&quot;&gt;&lt;span style=&quot;font-weight: 400; white-space-collapse: preserve; background-color: rgb(255, 255, 255);&quot;&gt;Topologie circulaire&lt;/span&gt;&lt;/font&gt;&lt;/div&gt;" style="text;strokeColor=none;fillColor=none;html=1;fontSize=24;fontStyle=1;verticalAlign=middle;align=center;whiteSpace=wrap;" parent="1" vertex="1">
          <mxGeometry x="1910" y="793.25" width="244" height="40" as="geometry" />
        </mxCell>
        <mxCell id="TxS4i8Arp_iMlsVurzLI-97" value="&lt;div style=&quot;font-size: 30px;&quot;&gt;&lt;font face=&quot;Arial&quot;&gt;&lt;span style=&quot;font-weight: 400; white-space-collapse: preserve; background-color: rgb(255, 255, 255);&quot;&gt;Topologie en mesh partiel&lt;/span&gt;&lt;/font&gt;&lt;/div&gt;" style="text;strokeColor=none;fillColor=none;html=1;fontSize=24;fontStyle=1;verticalAlign=middle;align=center;whiteSpace=wrap;" parent="1" vertex="1">
          <mxGeometry x="1810" y="544" width="244" height="40" as="geometry" />
        </mxCell>
        <mxCell id="TxS4i8Arp_iMlsVurzLI-98" value="&lt;div style=&quot;font-size: 30px;&quot;&gt;&lt;font face=&quot;Arial&quot;&gt;&lt;span style=&quot;font-weight: 400; white-space-collapse: preserve; background-color: rgb(255, 255, 255);&quot;&gt;SS&lt;/span&gt;&lt;/font&gt;&lt;/div&gt;" style="text;strokeColor=none;fillColor=none;html=1;fontSize=24;fontStyle=1;verticalAlign=middle;align=center;whiteSpace=wrap;" parent="1" vertex="1">
          <mxGeometry x="1531.5" y="870" width="244" height="40" as="geometry" />
        </mxCell>
        <mxCell id="TxS4i8Arp_iMlsVurzLI-99" value="&lt;div style=&quot;font-size: 30px;&quot;&gt;&lt;font face=&quot;Arial&quot;&gt;&lt;span style=&quot;font-weight: 400; white-space-collapse: preserve; background-color: rgb(255, 255, 255);&quot;&gt;SS1&lt;/span&gt;&lt;/font&gt;&lt;/div&gt;" style="text;strokeColor=none;fillColor=none;html=1;fontSize=24;fontStyle=1;verticalAlign=middle;align=center;whiteSpace=wrap;" parent="1" vertex="1">
          <mxGeometry x="920" y="842.12" width="244" height="40" as="geometry" />
        </mxCell>
        <mxCell id="TxS4i8Arp_iMlsVurzLI-100" value="&lt;div style=&quot;font-size: 30px;&quot;&gt;&lt;font face=&quot;Arial&quot;&gt;&lt;span style=&quot;font-weight: 400; white-space-collapse: preserve; background-color: rgb(255, 255, 255);&quot;&gt;RDC&lt;/span&gt;&lt;/font&gt;&lt;/div&gt;" style="text;strokeColor=none;fillColor=none;html=1;fontSize=24;fontStyle=1;verticalAlign=middle;align=center;whiteSpace=wrap;" parent="1" vertex="1">
          <mxGeometry x="277" y="911" width="244" height="40" as="geometry" />
        </mxCell>
        <mxCell id="TxS4i8Arp_iMlsVurzLI-101" value="&lt;div style=&quot;font-size: 30px;&quot;&gt;&lt;font face=&quot;Arial&quot;&gt;&lt;span style=&quot;font-weight: 400; white-space-collapse: preserve; background-color: rgb(255, 255, 255);&quot;&gt;Bureaux&lt;/span&gt;&lt;/font&gt;&lt;/div&gt;" style="text;strokeColor=none;fillColor=none;html=1;fontSize=24;fontStyle=1;verticalAlign=middle;align=center;whiteSpace=wrap;" parent="1" vertex="1">
          <mxGeometry x="-293" y="867.5" width="244" height="40" as="geometry" />
        </mxCell>
      </root>
    </mxGraphModel>
  </diagram>
</mxfile>
